<svg width="1280" height="404" viewBox="0 0 1280 404" fill="none" xmlns="http://www.w3.org/2000/svg">
<path fill-rule="evenodd" clip-rule="evenodd" d="M1280 404L1226.38 387.167C1172.75 370.333 1065.5 336.667 958.25 340.875C851 345.083 743.75 387.167 636.5 374.542C529.25 361.917 422 294.583 314.75 260.917C207.5 227.25 100.25 227.25 46.625 227.25L-6.99999 227.25V202L46.625 202C100.25 202 207.5 202 314.75 202C422 202 529.25 202 636.5 202C743.75 202 851 202 958.25 202C1065.5 202 1172.75 202 1226.38 202H1280V404Z" fill="#404040"/>
<path fill-rule="evenodd" clip-rule="evenodd" d="M0 0L53.625 16.8333C107.25 33.6667 214.5 67.3333 321.75 63.125C429 58.9167 536.25 16.8333 643.5 29.4583C750.75 42.0833 858 109.417 965.25 143.083C1072.5 176.75 1179.75 176.75 1233.37 176.75H1287V202H1233.37C1179.75 202 1072.5 202 965.25 202C858 202 750.75 202 643.5 202C536.25 202 429 202 321.75 202C214.5 202 107.25 202 53.625 202H0L0 0Z" fill="#404040"/>
</svg>
